<?xml version="1.0" encoding="UTF-8"?>
<!--Generator: Apple Native CoreSVG 175-->
<!DOCTYPE svg
PUBLIC "-//W3C//DTD SVG 1.1//EN"
       "http://www.w3.org/Graphics/SVG/1.1/DTD/svg11.dtd">
<svg version="1.1" xmlns="http://www.w3.org/2000/svg" xmlns:xlink="http://www.w3.org/1999/xlink" width="23.0273" height="17.9785">
 <g>
  <rect height="17.9785" opacity="0" width="23.0273" x="0" y="0"/>
  <path d="M22.0215 14.4336L16.2207 8.98438Q15.8887 8.69141 15.5176 8.53516Q15.1465 8.37891 14.7461 8.37891Q14.3457 8.37891 13.9844 8.52539Q13.623 8.67188 13.2812 8.96484L8.86719 12.9102L7.06055 11.2793Q6.75781 11.0059 6.4209 10.8643Q6.08398 10.7227 5.74219 10.7227Q5.41016 10.7227 5.09766 10.8594Q4.78516 10.9961 4.48242 11.2695L0.761719 14.6289Q0.810547 15.957 1.35742 16.626Q1.9043 17.2949 2.99805 17.2949L19.3652 17.2949Q20.6934 17.2949 21.3574 16.5674Q22.0215 15.8398 22.0215 14.4336ZM7.27539 9.08203Q7.91016 9.08203 8.42773 8.77441Q8.94531 8.4668 9.25781 7.93945Q9.57031 7.41211 9.57031 6.77734Q9.57031 6.15234 9.25781 5.625Q8.94531 5.09766 8.42773 4.78516Q7.91016 4.47266 7.27539 4.47266Q6.64062 4.47266 6.11816 4.78516Q5.5957 5.09766 5.2832 5.625Q4.9707 6.15234 4.9707 6.77734Q4.9707 7.41211 5.2832 7.93945Q5.5957 8.4668 6.11816 8.77441Q6.64062 9.08203 7.27539 9.08203ZM3.06641 17.9785L19.9609 17.9785Q21.5039 17.9785 22.2656 17.2217Q23.0273 16.4648 23.0273 14.9609L23.0273 3.02734Q23.0273 1.52344 22.2656 0.761719Q21.5039 0 19.9609 0L3.06641 0Q1.5332 0 0.766602 0.756836Q0 1.51367 0 3.02734L0 14.9609Q0 16.4648 0.766602 17.2217Q1.5332 17.9785 3.06641 17.9785ZM3.08594 16.4062Q2.35352 16.4062 1.96289 16.0205Q1.57227 15.6348 1.57227 14.873L1.57227 3.11523Q1.57227 2.35352 1.96289 1.96289Q2.35352 1.57227 3.08594 1.57227L19.9414 1.57227Q20.6641 1.57227 21.0596 1.96289Q21.4551 2.35352 21.4551 3.11523L21.4551 14.873Q21.4551 15.6348 21.0596 16.0205Q20.6641 16.4062 19.9414 16.4062Z" fill="rgba(255,255,255,0.85)"/>
 </g>
</svg>
